<svg height="512pt" viewBox="0 -38 512 512" width="512pt" xmlns="http://www.w3.org/2000/svg"><path d="m502 129.300781v-68.203125c0-15.050781-12.199219-27.253906-27.253906-27.253906h-170.785156c.027343.507812.050781 1.019531.050781 1.539062v110.511719h3.171875c8.195312 0 15.390625 4.25 19.519531 10.660157h148.042969c15.054687 0 27.253906-12.203126 27.253906-27.253907zm0 0" fill="#ee569e"/><path d="m209.578125 145.894531h3.171875v-110.511719c0-.519531.019531-1.03125.050781-1.539062h-175.546875c-15.054687 0-27.253906 12.203125-27.253906 27.253906v68.203125c0 15.050781 12.199219 27.253907 27.253906 27.253907h152.804688c4.128906-6.410157 11.324218-10.660157 19.519531-10.660157zm-118.820313-18.359375h-23.777343c-4.171875 0-7.550781-3.378906-7.550781-7.550781v-49.570313c0-4.171874 3.378906-7.550781 7.550781-7.550781h23.777343c4.171876 0 7.554688 3.378907 7.554688 7.550781v49.570313c0 4.171875-3.382812 7.550781-7.554688 7.550781zm0 0" fill="#ee569e"/><path d="m90.757812 62.863281h-23.777343c-4.171875 0-7.550781 3.378907-7.550781 7.550781v49.570313c0 4.171875 3.378906 7.550781 7.550781 7.550781h23.777343c4.171876 0 7.554688-3.378906 7.554688-7.550781v-49.570313c0-4.171874-3.382812-7.550781-7.554688-7.550781zm0 0" fill="#d6effb"/><path d="m186.367188 266.714844v-97.609375c0-4.625 1.359374-8.929688 3.691406-12.550781h-152.804688c-15.054687 0-27.253906 12.203124-27.253906 27.253906v68.203125c0 15.050781 12.199219 27.253906 27.253906 27.253906h152.804688c-2.332032-3.621094-3.691406-7.925781-3.691406-12.550781zm-88.054688-24.019532c0 4.167969-3.382812 7.550782-7.554688 7.550782h-23.777343c-4.171875 0-7.550781-3.382813-7.550781-7.550782v-49.566406c0-4.171875 3.378906-7.554687 7.550781-7.554687h23.777343c4.171876 0 7.554688 3.382812 7.554688 7.554687zm0 0" fill="#00b7ec"/><path d="m330.394531 169.105469v97.609375c0 4.625-1.359375 8.929687-3.691406 12.550781h148.042969c15.050781 0 27.253906-12.203125 27.253906-27.253906v-68.203125c0-15.050782-12.203125-27.253906-27.253906-27.253906h-148.042969c2.332031 3.621093 3.691406 7.925781 3.691406 12.550781zm0 0" fill="#00b7ec"/><path d="m90.757812 185.574219h-23.777343c-4.171875 0-7.550781 3.378906-7.550781 7.550781v49.566406c0 4.171875 3.378906 7.554688 7.550781 7.554688h23.777343c4.171876 0 7.554688-3.382813 7.554688-7.554688v-49.566406c0-4.171875-3.382812-7.550781-7.554688-7.550781zm0 0" fill="#d6effb"/><path d="m212.75 289.925781h-3.171875c-8.195313 0-15.390625-4.25-19.519531-10.660156h-152.804688c-15.054687 0-27.253906 12.203125-27.253906 27.25v68.207031c0 15.050782 12.199219 27.253906 27.253906 27.253906h175.546875c-.027343-.507812-.050781-1.023437-.050781-1.539062zm-114.4375 75.476563c0 4.171875-3.382812 7.554687-7.554688 7.554687h-23.777343c-4.171875 0-7.550781-3.382812-7.550781-7.554687v-49.566406c0-4.171876 3.378906-7.554688 7.550781-7.554688h23.777343c4.171876 0 7.554688 3.382812 7.554688 7.554688zm0 0" fill="#ffd866"/><path d="m307.183594 289.925781h-3.171875v110.515625c0 .515625-.023438 1.027344-.050781 1.535156h170.785156c15.050781 0 27.253906-12.203124 27.253906-27.253906v-68.203125c0-15.050781-12.203125-27.253906-27.253906-27.253906h-148.042969c-4.128906 6.410156-11.324219 10.660156-19.519531 10.660156zm0 0" fill="#ffd866"/><path d="m90.757812 308.28125h-23.777343c-4.171875 0-7.550781 3.382812-7.550781 7.554688v49.566406c0 4.171875 3.378906 7.554687 7.550781 7.554687h23.777343c4.171876 0 7.554688-3.382812 7.554688-7.554687v-49.566406c0-4.171876-3.382812-7.554688-7.554688-7.554688zm0 0" fill="#d6effb"/><path d="m212.75 145.894531h28.171875v-7.050781c0-9.640625 7.816406-17.457031 17.457031-17.457031 9.644532 0 17.460938 7.816406 17.460938 17.457031v7.050781h28.167968v-110.511719c0-.519531-.019531-1.03125-.050781-1.539062-.792969-13.300781-11.828125-23.84375-25.328125-23.84375h-40.496094c-13.503906 0-24.535156 10.542969-25.332031 23.84375-.03125.507812-.050781 1.019531-.050781 1.539062zm0 0" fill="#ce9273"/><path d="m304.011719 289.925781h-91.257813v110.515625c0 .515625.019532 1.027344.050782 1.535156.792968 13.300782 11.828124 23.84375 25.328124 23.84375h40.496094c13.503906 0 24.535156-10.542968 25.332032-23.84375.027343-.507812.050781-1.019531.050781-1.535156zm0 0" fill="#ce9273"/><path d="m275.839844 200.453125c0 9.640625-7.816406 17.457031-17.457032 17.457031-9.644531 0-17.460937-7.816406-17.460937-17.457031v-54.558594h-31.34375c-8.191406 0-15.390625 4.25-19.519531 10.660157-2.332032 3.621093-3.691406 7.925781-3.691406 12.550781v97.605469c0 4.628906 1.359374 8.933593 3.691406 12.554687 4.128906 6.410156 11.328125 10.660156 19.519531 10.660156h97.605469c8.195312 0 15.390625-4.25 19.519531-10.660156 2.332031-3.621094 3.691406-7.925781 3.691406-12.554687v-97.605469c0-4.625-1.359375-8.933594-3.691406-12.550781-4.128906-6.410157-11.324219-10.660157-19.519531-10.660157h-31.34375zm0 0" fill="#fab05f"/><path d="m240.921875 200.453125c0 9.640625 7.816406 17.457031 17.460937 17.457031 9.640626 0 17.457032-7.816406 17.457032-17.457031v-61.609375c0-9.640625-7.816406-17.457031-17.457032-17.457031-9.644531 0-17.460937 7.816406-17.460937 17.457031zm0 0" fill="#ffd866"/><path d="m457.164062 59.011719c-5.519531 0-10 4.480469-10 10v52.375c0 5.523437 4.480469 10 10 10 5.523438 0 10-4.476563 10-10v-52.375c0-5.523438-4.476562-10-10-10zm0 0"/><path d="m416.691406 59.011719c-5.519531 0-10 4.480469-10 10v52.375c0 5.523437 4.480469 10 10 10 5.523438 0 10-4.476563 10-10v-52.375c0-5.523438-4.476562-10-10-10zm0 0"/><path d="m66.980469 137.535156h23.777343c9.679688 0 17.554688-7.875 17.554688-17.550781v-49.570313c0-9.675781-7.875-17.550781-17.554688-17.550781h-23.777343c-9.679688 0-17.550781 7.875-17.550781 17.550781v49.570313c0 9.675781 7.871093 17.550781 17.550781 17.550781zm2.449219-64.671875h18.882812v44.671875h-18.882812zm0 0"/><path d="m66.980469 260.246094h23.777343c9.679688 0 17.554688-7.875 17.554688-17.554688v-49.5625c0-9.679687-7.875-17.554687-17.554688-17.554687h-23.777343c-9.679688 0-17.550781 7.875-17.550781 17.554687v49.5625c0 9.679688 7.871093 17.554688 17.550781 17.554688zm2.449219-64.671875h18.882812v44.671875h-18.882812zm0 0"/><path d="m457.164062 181.722656c-5.519531 0-10 4.476563-10 10v52.375c0 5.523438 4.480469 10 10 10 5.523438 0 10-4.476562 10-10v-52.375c0-5.523437-4.476562-10-10-10zm0 0"/><path d="m416.691406 181.722656c-5.519531 0-10 4.476563-10 10v52.375c0 5.523438 4.480469 10 10 10 5.523438 0 10-4.476562 10-10v-52.375c0-5.523437-4.476562-10-10-10zm0 0"/><path d="m90.757812 298.28125h-23.777343c-9.679688 0-17.550781 7.875-17.550781 17.554688v49.566406c0 9.679687 7.875 17.554687 17.550781 17.554687h23.777343c9.679688 0 17.554688-7.875 17.554688-17.554687v-49.566406c0-9.679688-7.875-17.554688-17.554688-17.554688zm-2.445312 64.675781h-18.882812v-44.675781h18.882812zm0 0"/><path d="m457.164062 304.433594c-5.519531 0-10 4.476562-10 10v52.375c0 5.519531 4.480469 10 10 10 5.523438 0 10-4.480469 10-10v-52.375c0-5.523438-4.476562-10-10-10zm0 0"/><path d="m416.691406 304.433594c-5.519531 0-10 4.476562-10 10v52.375c0 5.519531 4.480469 10 10 10 5.523438 0 10-4.480469 10-10v-52.375c0-5.523438-4.476562-10-10-10zm0 0"/><path d="m212.75 100.257812c5.523438 0 10-4.492187 10-10.015624 0-5.523438-4.476562-10-10-10s-10 4.480468-10 10v.027343c0 5.519531 4.480469 9.988281 10 9.988281zm0 0"/><path d="m512 129.304688v-68.207032c0-20.539062-16.710938-37.253906-37.253906-37.253906h-162.675782c-4.796874-13.859375-17.96875-23.84375-33.441406-23.84375h-40.5c-15.46875 0-28.644531 9.984375-33.4375 23.84375h-167.4375c-20.542968 0-37.253906 16.710938-37.253906 37.253906v68.207032c0 10.75 4.582031 20.441406 11.890625 27.25-7.308594 6.804687-11.890625 16.503906-11.890625 27.253906v68.203125c0 10.75 4.585938 20.445312 11.894531 27.25-7.308593 6.808593-11.894531 16.503906-11.894531 27.253906v68.207031c0 20.539063 16.710938 37.253906 37.253906 37.253906h167.4375c4.792969 13.859376 17.96875 23.84375 33.4375 23.84375h40.5c15.472656 0 28.644532-9.984374 33.441406-23.84375h162.675782c20.542968 0 37.253906-16.714843 37.253906-37.253906v-68.207031c0-10.75-4.585938-20.445313-11.894531-27.253906 7.308593-6.804688 11.894531-16.5 11.894531-27.25v-68.203125c0-10.75-4.582031-20.449219-11.890625-27.253906 7.308594-6.808594 11.890625-16.5 11.890625-27.25zm-204.820312 150.617187h-97.601563c-4.515625 0-8.667969-2.269531-11.121094-6.09375-1.367187-2.109375-2.085937-4.570313-2.085937-7.117187v-97.601563c0-2.542969.722656-5.007813 2.113281-7.152344 2.4375-3.792969 6.585937-6.058593 11.09375-6.058593h21.34375v44.550781c0 14.667969 11.558594 26.6875 26.046875 27.425781.273438.011719.550781.015625.824219.019531.195312.003907.390625.015625.585937.015625 9.464844 0 17.824219-4.8125 22.761719-12.117187 2.964844-4.382813 4.699219-9.664063 4.699219-15.34375v-44.550781h21.339844c4.511718 0 8.664062 2.269531 11.121093 6.082031 1.371094 2.121093 2.097657 4.585937 2.097657 7.128906v97.601563c0 .332031-.011719.660156-.039063.988281-.160156 2.183593-.855469 4.28125-2.050781 6.128906-.003906.007813-.007813.015625-.011719.019531-1.125 1.742188-2.617187 3.144532-4.324219 4.171875-2.019531 1.214844-4.347656 1.902344-6.792968 1.902344zm-41.339844-79.46875c0 1.539063-.472656 2.976563-1.277344 4.164063-1.339844 1.984374-3.613281 3.292968-6.179688 3.292968-4.113281 0-7.460937-3.34375-7.460937-7.457031v-61.605469c0-4.113281 3.347656-7.460937 7.460937-7.460937 4.109376 0 7.457032 3.347656 7.457032 7.460937zm-245.839844-71.148437v-68.207032c0-9.511718 7.738281-17.253906 17.253906-17.253906h165.496094v6.398438c0 5.519531 4.476562 10 10 10s10-4.480469 10-10v-14.832032c0-.011718 0-.019531 0-.027344 0-.035156.003906-.066406.003906-.097656.050782-8.4375 6.925782-15.285156 15.375-15.285156h40.5c8.480469 0 15.378906 6.898438 15.378906 15.378906v100.519532h-8.328124c-1.476563-13.757813-13.152344-24.511719-27.300782-24.511719-14.144531 0-25.824218 10.753906-27.296875 24.511719h-8.332031v-5.660157c0-5.519531-4.476562-10-10-10s-10 4.480469-10 10v6.359375c-.433594.089844-.859375.195313-1.285156.304688-.074219.019531-.148438.03125-.222656.050781-1.269532.328125-2.515626.730469-3.730469 1.203125-.15625.0625-.308594.128906-.464844.191406-.433594.175782-.859375.355469-1.28125.550782-.195313.089843-.386719.179687-.582031.273437-.382813.183594-.765625.378906-1.144532.578125-.195312.105469-.390624.207031-.585937.3125-.394531.21875-.785156.453125-1.171875.691406-.15625.09375-.316406.183594-.46875.28125-.527344.332032-1.039062.679688-1.546875 1.039063-.144531.105469-.285156.21875-.425781.324219-.363282.269531-.726563.542968-1.078125.824218-.191407.15625-.378907.316406-.566407.476563-.300781.253906-.597656.511719-.894531.78125-.183593.167969-.367187.335937-.546875.507812-.300781.285157-.597656.582031-.890625.878907-.152343.15625-.308593.3125-.457031.472656-.066406.070312-.136719.140625-.207031.210937h-147.949219c-.015625 0-.03125 0-.050781 0-9.488281-.027343-17.199219-7.753906-17.199219-17.246093zm17.253906 37.25h139.214844c-.003906.023437 0 .050781-.003906.078124-.0625.820313-.09375 1.648438-.09375 2.476563v97.601563c0 .828124.03125 1.65625.09375 2.476562 0 .023438 0 .046875.003906.074219h-139.21875c-9.511719 0-17.25-7.738281-17.25-17.25v-68.203125c0-9.5 7.710938-17.226563 17.199219-17.253906zm-17.253906 208.167968v-68.203125c0-9.515625 7.738281-17.253906 17.253906-17.253906h147.941406c.046876.050781.101563.097656.148438.148437.542969.582032 1.097656 1.144532 1.675781 1.683594.582031.539063 1.179688 1.046875 1.792969 1.539063.171875.136719.347656.269531.523438.402343.457031.351563.917968.691407 1.390624 1.019532.207032.140625.414063.28125.621094.417968.476563.3125.964844.613282 1.457032.902344.191406.113282.382812.230469.578124.339844.675782.378906 1.363282.738281 2.066407 1.066406.007812.003906.015625.007813.023437.011719.699219.332031 1.417969.628906 2.140625.90625.246094.09375.496094.179687.742188.265625.488281.175781.976562.339844 1.472656.492188.292969.089843.59375.175781.890625.257812.46875.128906.941406.246094 1.414062.351562.207032.046876.40625.113282.613282.15625v92.75h-165.492188c-9.515625 0-17.253906-7.742187-17.253906-17.253906zm258.628906 41.097656h-40.5c-8.449218 0-15.324218-6.847656-15.375-15.285156 0-.03125 0-.0625 0-.097656v-100.515625h71.257813v100.519531c-.003907 8.480469-6.902344 15.378906-15.382813 15.378906zm213.371094-41.097656c0 9.515625-7.738281 17.253906-17.253906 17.253906h-160.734375v-92.753906c.214843-.042968.421875-.109375.636719-.160156.460937-.101562.917968-.214844 1.371093-.339844.308594-.085937.621094-.175781.929688-.269531.480469-.144531.953125-.304687 1.421875-.472656.261718-.09375.523437-.183594.78125-.28125.71875-.277344 1.433594-.574219 2.128906-.898438.03125-.015625.058594-.03125.085938-.046875.683593-.320312 1.351562-.667968 2.011718-1.039062.1875-.105469.375-.21875.558594-.328125.507812-.296875 1.007812-.601563 1.496094-.925781.191406-.125.378906-.25.566406-.382813.511719-.351563 1.011719-.71875 1.503906-1.101563.132813-.101562.269532-.203124.402344-.308593 1.261719-1.011719 2.457031-2.117188 3.570312-3.3125.027344-.03125.058594-.058594.089844-.089844h143.183594c9.511719 0 17.25 7.738281 17.25 17.25zm0-190.914062v68.203125c0 9.511719-7.738281 17.25-17.25 17.25h-134.445312c0-.027344 0-.054688.003906-.082031.058594-.820313.09375-1.644532.09375-2.46875v-97.601563c0-.828125-.035156-1.652344-.09375-2.472656-.003906-.027344-.003906-.054688-.003906-.082031h134.445312.050781c9.488281.027343 17.199219 7.757812 17.199219 17.253906zm-17.25-37.257813h-143.1875c-.050781-.054687-.109375-.105469-.160156-.15625-.519532-.558593-1.050782-1.097656-1.605469-1.613281-.050781-.046875-.105469-.09375-.15625-.144531-.539063-.496094-1.097656-.96875-1.664063-1.425781-.214843-.171876-.433593-.335938-.652343-.5-.402344-.3125-.8125-.613282-1.230469-.902344-.253906-.175782-.507812-.34375-.761719-.511719-.414062-.269531-.832031-.527344-1.253906-.777344-.253906-.152343-.507813-.304687-.765625-.449219-.53125-.292968-1.070312-.570312-1.613281-.835937-.238281-.113281-.476563-.230469-.71875-.339844-.589844-.269531-1.1875-.523437-1.792969-.757812-.296875-.117188-.601562-.214844-.902344-.324219-.433594-.152344-.867187-.300781-1.304687-.433594-.332031-.101562-.664063-.199218-.996094-.289062-.433594-.117188-.867187-.226563-1.304687-.324219-.226563-.050781-.445313-.121094-.671876-.167969v-92.753906h160.738282c9.515625 0 17.253906 7.742188 17.253906 17.253906v68.207032c0 9.492187-7.710938 17.21875-17.199219 17.25-.019531-.003907-.035156-.003907-.050781-.003907zm0 0"/></svg>