<?xml version="1.0" encoding="iso-8859-1"?>
<!-- Generator: Adobe Illustrator 19.0.0, SVG Export Plug-In . SVG Version: 6.00 Build 0)  -->
<svg version="1.1" id="Capa_1" xmlns="http://www.w3.org/2000/svg" xmlns:xlink="http://www.w3.org/1999/xlink" x="0px" y="0px"
	 viewBox="0 0 496 496" style="fill: lightgreen;" xml:space="preserve">
<g>
	<g>
		<g>
			<path d="M415.928,88.072c0.043-2.137-0.776-4.202-2.272-5.728l-79.92-80c-0.176-0.176-0.416-0.248-0.608-0.408
				c-0.513-0.448-1.08-0.83-1.688-1.136c-0.932-0.375-1.912-0.617-2.912-0.72c-0.156-0.035-0.313-0.062-0.472-0.08H88
				c-4.418,0-8,3.582-8,8v480c0,4.418,3.582,8,8,8h320c4.418,0,8-3.582,8-8V88.432C416,88.304,415.936,88.192,415.928,88.072z
				 M336,27.336L388.344,80H336V27.336z M400,480H96V16h224v72c0,4.418,3.582,8,8,8h72V480z"/>
			<path d="M184,248c22.091,0,40-17.909,40-40s-17.909-40-40-40s-40,17.909-40,40C144.026,230.08,161.92,247.974,184,248z M184,184
				c13.255,0,24,10.745,24,24s-10.745,24-24,24s-24-10.745-24-24S170.745,184,184,184z"/>
			<path d="M304.272,200c-3.014-0.221-5.869,1.383-7.248,4.072L230.2,322.88l-48.544-48.536c-1.702-1.686-4.063-2.53-6.448-2.304
				c-2.383,0.237-4.535,1.528-5.864,3.52l-64,96c-2.452,3.675-1.461,8.643,2.215,11.095c1.315,0.877,2.86,1.345,4.441,1.345h272
				c4.418-0.013,7.99-3.604,7.977-8.023c-0.003-1.183-0.269-2.35-0.777-3.417l-80-168C309.92,201.868,307.25,200.111,304.272,200z
				 M126.952,368l50.288-75.448l49.104,49.104c1.761,1.782,4.264,2.622,6.744,2.264c2.48-0.339,4.659-1.819,5.888-4l64.432-114.552
				L371.328,368H126.952z"/>
			<path d="M152,448h-8l-16-16v-8c0-4.418-3.582-8-8-8s-8,3.582-8,8v32c0,4.418,3.582,8,8,8h32c4.418,0,8-3.582,8-8
				S156.418,448,152,448z"/>
		</g>
	</g>
</g>
<g>
</g>
<g>
</g>
<g>
</g>
<g>
</g>
<g>
</g>
<g>
</g>
<g>
</g>
<g>
</g>
<g>
</g>
<g>
</g>
<g>
</g>
<g>
</g>
<g>
</g>
<g>
</g>
<g>
</g>
</svg>
