<svg id="Capa_1" enable-background="new 0 0 512 512" height="512" viewBox="0 0 512 512" width="512" xmlns="http://www.w3.org/2000/svg"><g><g><path clip-rule="evenodd" d="m133.021 196.828c-45.183 45.183-49.775 115.566-13.776 165.88l-44.957 44.928-27.694-27.694-30.047 30.047 27.722 27.694-34.269 34.27 30.047 30.047 34.242-34.27 27.722 27.694 30.047-30.047-27.722-27.694 44.957-44.928c50.286 35.971 120.669 31.379 165.852-13.776 14.116-14.116 24.292-30.699 30.472-48.386-13.351 4.705-27.722 7.257-42.689 7.257-2.636 0-5.244-.085-7.823-.227-2.863 4.053-6.094 7.937-9.751 11.565-33.845 33.845-88.694 33.845-122.568 0-33.845-33.845-33.845-88.723 0-122.568 3.657-3.628 7.512-6.888 11.593-9.723 12.727-8.957 27.325-14.06 42.207-15.335 24.604-2.126 49.946 6.236 68.796 25.058 18.822 18.822 27.184 44.191 25.058 68.796 15.619-1.332 30.047-6.831 42.207-15.335-1.842-30.302-14.343-60.093-37.502-83.252s-52.922-35.631-83.224-37.473c-17.036-1.049-34.242 1.304-50.541 7.001-17.66 6.207-34.242 16.355-48.359 30.471z" fill="#ff9eb1" fill-rule="evenodd"/></g><g><path clip-rule="evenodd" d="m302.927 80.27c-56.153 0-103.944 35.943-121.547 86.087 16.299-5.698 33.505-8.05 50.541-7.001 15.675-22.365 41.64-36.963 71.007-36.963 47.876 0 86.653 38.806 86.653 86.682 0 29.366-14.598 55.331-36.935 71.006-12.16 8.504-26.588 14.003-42.207 15.335-2.494.198-4.989.312-7.512.312-47.876 0-86.682-38.806-86.682-86.653 0-2.551.113-5.046.34-7.512-14.882 1.276-29.48 6.378-42.207 15.335 3.883 64.884 55.813 116.814 120.725 120.725 2.579.142 5.187.227 7.823.227 14.967 0 29.338-2.551 42.689-7.257 50.144-17.603 86.087-65.366 86.087-121.519 0-27.921-8.872-53.715-23.924-74.805l51.731-51.731v43.879h42.491v-73.926-42.491h-42.491-73.954v42.491h43.908l-51.731 51.731c-21.09-15.08-46.913-23.952-74.805-23.952z" fill="#99ebfa" fill-rule="evenodd"/></g><g><path clip-rule="evenodd" d="m77.69 29.389c-13.889-12.954-35.801-14.797-49.067-1.049-15.193 15.732-15.193 41.47 0 57.202l55.218 53.29 55.246-53.29c15.193-15.732 15.193-41.47 0-57.202-13.266-13.748-35.206-11.905-49.095 1.049-6.321 5.924-5.952 5.924-12.302 0z" fill="#ff9eb1" fill-rule="evenodd"/></g><g><path clip-rule="evenodd" d="m441.51 392.556c-6.321 5.924-5.953 5.924-12.302 0-13.89-12.982-35.801-14.825-49.067-1.077-15.193 15.732-15.193 41.47 0 57.202l55.218 53.319 55.246-53.319c15.193-15.732 15.193-41.47 0-57.202-13.266-13.747-35.206-11.905-49.095 1.077z" fill="#ff9eb1" fill-rule="evenodd"/></g><g><path d="m502 0h-116.445c-5.523 0-10 4.478-10 10v42.49c0 5.522 4.477 10 10 10h19.766l-28.852 28.853c-22.029-13.813-47.28-21.073-73.542-21.073-57.253 0-108.605 35.275-129.298 88.263-17.664 6.883-33.871 17.417-47.678 31.224-23.383 23.384-37.671 54.392-40.23 87.313-2.309 29.699 4.995 59.338 20.648 84.37l-32.077 32.058-20.625-20.626c-1.875-1.875-4.419-2.929-7.071-2.929s-5.196 1.054-7.071 2.929l-30.048 30.046c-1.876 1.876-2.929 4.421-2.929 7.074 0 2.652 1.056 5.196 2.933 7.071l20.644 20.624-27.196 27.195c-1.875 1.876-2.929 4.419-2.929 7.071s1.054 5.195 2.929 7.071l30.047 30.047c1.876 1.876 4.42 2.93 7.073 2.929s5.197-1.056 7.072-2.932l27.174-27.197 20.648 20.627c3.905 3.902 10.234 3.899 14.139-.003l30.047-30.047c1.876-1.876 2.929-4.421 2.929-7.074 0-2.652-1.056-5.197-2.933-7.072l-20.642-20.62 32.074-32.053c25.022 15.642 54.658 22.938 84.35 20.63 32.917-2.56 63.923-16.839 87.308-40.209 13.794-13.793 24.277-29.852 31.22-47.78 29.065-11.392 54.026-32.427 69.994-60.306 2.745-4.793 1.085-10.903-3.707-13.648-4.792-2.743-10.903-1.085-13.647 3.707-21.137 36.902-60.661 59.826-103.147 59.826-60.796 0-111.59-46.028-118.082-105.813 6.768-4.025 14.026-6.915 21.5-8.678 2.251 51.314 44.708 92.369 96.582 92.369 53.295 0 96.653-43.358 96.653-96.653 0-53.311-43.358-96.682-96.653-96.682-29.636 0-57.593 13.645-75.865 36.758-.992-.021-1.984-.036-2.979-.036-8.481 0-16.843.764-25.015 2.243 20.683-37.193 60.268-61.087 103.859-61.087 24.925 0 48.781 7.638 68.988 22.087 3.978 2.845 9.43 2.395 12.888-1.063l51.731-51.731c2.86-2.86 3.715-7.161 2.167-10.898-1.548-3.736-5.194-6.173-9.239-6.173h-33.908v-22.492h96.445v96.417h-22.491v-33.88c0-4.045-2.437-7.691-6.173-9.239-3.738-1.545-8.038-.692-10.898 2.168l-51.731 51.731c-3.458 3.458-3.907 8.908-1.064 12.887 9.947 13.915 16.639 29.462 19.89 46.206.928 4.777 5.114 8.096 9.806 8.096.632 0 1.273-.061 1.917-.186 5.422-1.053 8.963-6.301 7.911-11.723-3.259-16.787-9.475-32.542-18.509-46.946l28.852-28.852v19.737c0 5.522 4.477 10 10 10h42.49c5.523 0 10-4.478 10-10v-116.416c0-5.522-4.477-10-10-10zm-226.829 345.049c-30.054 26.907-76.426 25.934-105.315-2.932-28.881-28.88-29.852-75.256-2.931-105.319 11.076 54.568 54.133 97.215 108.246 108.251zm-48.869-133.712c18.892.542 37.621 7.979 52.007 22.353 13.936 13.936 21.858 32.506 22.418 51.98-40.512-1.149-73.241-33.844-74.425-74.333zm76.625-78.945c42.267 0 76.653 34.399 76.653 76.682 0 19.581-7.389 37.461-19.513 51.024-5.416-26.507-18.493-50.982-37.852-70.341-19.534-19.534-43.87-32.522-70.347-37.874 13.911-12.406 32.049-19.491 51.059-19.491zm-78.844 36.721c31.73 0 61.558 12.354 83.99 34.786 19.168 19.167 31.142 44.191 34.092 70.99-6.592 3.945-13.826 6.917-21.5 8.743-1.05-24.02-10.988-46.859-28.216-64.087-37.697-37.665-99.035-37.666-136.735.003-37.69 37.691-37.69 99.02.003 136.714 18.857 18.841 43.615 28.259 68.372 28.258 24.745-.002 49.488-9.414 68.307-28.234 2.649-2.629 5.165-5.475 7.542-8.473.994.021 1.99.037 2.989.037 8.496 0 16.886-.803 25.088-2.319-5.32 9.597-11.988 18.424-19.94 26.376-41.273 41.248-105.603 46.595-152.965 12.716-3.977-2.844-9.428-2.397-12.887 1.061l-44.957 44.926c-1.877 1.876-2.932 4.421-2.931 7.074s1.055 5.198 2.933 7.074l20.644 20.622-15.904 15.904-20.651-20.63c-3.905-3.903-10.237-3.9-14.142.006l-27.17 27.193-15.902-15.901 27.199-27.198c1.876-1.876 2.93-4.421 2.929-7.074 0-2.652-1.056-5.196-2.933-7.071l-20.644-20.624 15.901-15.9 20.623 20.623c3.904 3.903 10.235 3.905 14.14.002l44.957-44.929c3.461-3.458 3.911-8.913 1.064-12.893-33.901-47.38-28.554-111.722 12.715-152.989 22.43-22.432 52.259-34.786 83.989-34.786z"/><path d="m465.88 372.003c-11.182.459-21.98 4.933-30.521 12.627-8.533-7.691-19.331-12.167-30.507-12.627-12.29-.521-23.62 3.945-31.903 12.529-18.93 19.601-18.931 51.494 0 71.096.081.084.164.167.247.247l55.218 53.318c1.938 1.871 4.442 2.807 6.946 2.807 2.503 0 5.007-.935 6.944-2.805l55.246-53.318c.084-.081.167-.164.249-.249 18.93-19.602 18.93-51.495.003-71.092-8.288-8.589-19.63-13.057-31.922-12.533zm17.645 69.613-48.165 46.484-48.139-46.483c-11.417-11.95-11.381-31.29.116-43.194 9.813-10.168 25.83-7.171 35.048 1.445l.517.483c3.817 3.567 7.114 6.648 12.466 6.648 5.366 0 8.655-3.088 12.464-6.664l.505-.474c9.218-8.618 25.249-11.619 35.074-1.436 11.494 11.902 11.532 31.241.114 43.191z"/><path d="m21.679 92.737 55.218 53.29c1.938 1.87 4.44 2.805 6.944 2.805 2.502 0 5.005-.935 6.942-2.803l55.246-53.29c.085-.082.169-.165.251-.251 18.93-19.602 18.93-51.495.003-71.092-8.285-8.586-19.62-13.036-31.917-12.537-11.178.455-21.975 4.917-30.525 12.604-8.535-7.681-19.335-12.149-30.511-12.604-12.284-.491-23.619 3.951-31.9 12.533-18.93 19.601-18.93 51.495 0 71.096.081.085.164.168.249.249zm14.14-57.454c9.81-10.165 25.832-7.179 35.049 1.417l.517.483c3.817 3.567 7.114 6.647 12.466 6.647 5.366 0 8.655-3.087 12.464-6.663l.497-.466c9.226-8.605 25.26-11.594 35.082-1.415 11.493 11.9 11.532 31.238.114 43.189l-48.166 46.46-48.14-46.459c-11.417-11.949-11.379-31.288.117-43.193z"/></g><g><path d="m430.001 240.021c-5.523 0-10-4.478-10-10s4.477-10.028 10-10.028 10 4.449 10 9.972v.057c0 5.521-4.477 9.999-10 9.999z"/></g></g></svg>