<?xml version="1.0" encoding="iso-8859-1"?>
<!-- Generator: Adobe Illustrator 18.0.0, SVG Export Plug-In . SVG Version: 6.00 Build 0)  -->
<!DOCTYPE svg PUBLIC "-//W3C//DTD SVG 1.1//EN" "http://www.w3.org/Graphics/SVG/1.1/DTD/svg11.dtd">
<svg version="1.1" id="Capa_1" xmlns="http://www.w3.org/2000/svg" xmlns:xlink="http://www.w3.org/1999/xlink" x="0px" y="0px"
	 viewBox="0 0 297.033 297.033" style="fill: #e84118" xml:space="preserve">
<g>
	<path d="M286.757,29.956c-5.676,0-10.275,4.601-10.275,10.277c0,10.615-8.618,19.584-18.819,19.584H103.048
		c-27.492,0-53.39,10.935-72.926,30.793C10.698,110.355,0,136.413,0,163.983c0,56.848,46.227,103.094,103.048,103.094
		c56.818,0,103.045-46.246,103.045-103.094c0-27.57-10.698-53.629-30.123-73.373c-3.671-3.733-7.565-7.149-11.653-10.234h93.346
		c21.71,0,39.371-18.01,39.371-40.143C297.033,34.558,292.432,29.956,286.757,29.956z M185.537,163.983
		c0,45.512-37.005,82.537-82.489,82.537c-45.491,0-82.496-37.025-82.496-82.537c0-46.104,37.005-83.607,82.496-83.607
		C148.532,80.376,185.537,117.88,185.537,163.983z"/>
	<path d="M103.048,181.214c9.505,0,17.217-7.717,17.217-17.23s-7.712-17.225-17.217-17.225c-9.512,0-17.225,7.711-17.225,17.225
		S93.536,181.214,103.048,181.214z"/>
	<path d="M103.048,215.981c28.658,0,51.975-23.326,51.975-51.998s-23.316-52-51.975-52c-28.661,0-51.979,23.328-51.979,52
		S74.387,215.981,103.048,215.981z M103.048,132.542c17.324,0,31.418,14.105,31.418,31.441c0,17.338-14.094,31.443-31.418,31.443
		c-17.329,0-31.429-14.105-31.429-31.443C71.619,146.648,85.719,132.542,103.048,132.542z"/>
</g>
<g>
</g>
<g>
</g>
<g>
</g>
<g>
</g>
<g>
</g>
<g>
</g>
<g>
</g>
<g>
</g>
<g>
</g>
<g>
</g>
<g>
</g>
<g>
</g>
<g>
</g>
<g>
</g>
<g>
</g>
</svg>
