<?xml version="1.0" encoding="iso-8859-1"?>
<!-- Generator: Adobe Illustrator 19.0.0, SVG Export Plug-In . SVG Version: 6.00 Build 0)  -->
<svg version="1.1" id="Layer_1" xmlns="http://www.w3.org/2000/svg" xmlns:xlink="http://www.w3.org/1999/xlink" x="0px" y="0px"
	 viewBox="0 0 512 512" style="enable-background:new 0 0 512 512;" xml:space="preserve">
<path style="fill:#92E03F;" d="M275.013,502h-35.101c-8.19,0-12.286-4.095-12.286-12.286v-45.046h-4.094
	c-29.645,0-52.753-8.483-69.326-25.449c-16.581-16.966-24.862-40.457-24.862-70.495V337.61c0-8.19,4.094-12.285,12.285-12.285
	h49.727c8.19,0,12.284,4.095,12.284,12.285v4.096c0,14.826,2.926,24.963,8.776,30.42c5.851,5.466,16.572,8.191,32.176,8.191h23.401
	c15.21,0,25.832-2.925,31.884-8.776c6.042-5.85,9.068-16.764,9.068-32.761v-8.776c0-9.744-2.925-17.349-8.776-22.815
	c-5.851-5.457-12.679-9.159-20.476-11.115c-7.02-1.554-20.768-3.309-41.244-5.265c-20.476-1.947-35.786-4.388-45.924-7.313
	c-10.146-2.925-20.476-7.898-31.007-14.918c-21.847-14.041-32.76-41.536-32.76-82.488v-21.646c0-30.805,8.281-54.498,24.864-71.079
	c10.358-10.358,23.343-17.48,38.959-21.366c9.37-2.331,19.686-3.497,30.951-3.497h4.094V22.286c0-8.191,4.096-12.286,12.286-12.286
	h35.101c8.19,0,12.286,4.095,12.286,12.286v46.216h1.17c27.687,0,49.525,8.583,65.522,25.74
	c15.987,17.167,23.986,40.567,23.986,70.202v11.115c0,8.19-4.096,12.286-12.286,12.286h-49.726c-8.191,0-12.286-4.096-12.286-12.286
	v-4.095c0-14.817-2.834-24.955-8.483-30.421c-5.657-5.457-16.48-8.19-32.468-8.19h-18.721c-15.996,0-26.818,3.026-32.468,9.068
	c-5.657,6.051-8.482,17.843-8.482,35.394v11.7c0,8.583,2.925,15.311,8.775,20.183c5.85,4.882,12.477,8.099,19.89,9.653
	c8.574,1.563,23.107,3.218,43.583,4.973s35.879,4.296,46.217,7.605c10.329,3.318,20.567,8.483,30.713,15.503
	c20.668,14.827,31.006,41.344,31.006,79.563v22.23c0,30.421-8.483,54.023-25.449,70.787c-16.966,16.773-40.073,25.156-69.324,25.156
	h-1.17v45.046C287.299,497.905,283.203,502,275.013,502z"/>
<path d="M275.013,512h-35.101c-13.747,0-22.286-8.54-22.286-22.286v-35.156c-29.545-1.108-53.265-10.631-70.573-28.351
	c-18.386-18.813-27.709-44.882-27.709-77.482V337.61c0-13.746,8.539-22.285,22.284-22.285h49.728
	c13.745,0,22.284,8.539,22.284,22.285v4.096c0,15.563,3.507,21.158,5.598,23.108c2.203,2.058,8.418,5.502,25.354,5.502h23.4
	c15.508,0,22.118-3.244,24.934-5.965c2.244-2.173,6.019-8.393,6.019-25.571v-8.775c0-6.913-1.832-11.986-5.603-15.508
	c-4.591-4.282-9.812-7.127-15.948-8.689c-6.643-1.453-20.063-3.149-39.896-5.044c-21.275-2.023-36.895-4.529-47.745-7.659
	c-11.051-3.186-22.394-8.623-33.713-16.16c-24.737-15.942-37.281-46.51-37.281-90.854v-21.646c0-24.395,5.004-45.112,14.873-61.576
	c2.839-4.737,8.98-6.275,13.719-3.436c4.736,2.839,6.275,8.981,3.436,13.719c-7.98,13.313-12.027,30.571-12.027,51.293v21.646
	c0,37.141,9.477,62.063,28.166,74.075c0.047,0.03,0.094,0.061,0.141,0.092c9.632,6.42,19.13,11.006,28.23,13.63
	c9.512,2.745,24.349,5.088,44.1,6.966c21.079,2.014,34.966,3.798,42.458,5.457c0.091,0.02,0.182,0.042,0.272,0.064
	c9.429,2.366,17.794,6.909,24.863,13.502c7.935,7.413,11.955,17.547,11.955,30.128v8.775c0,18.988-3.962,32.054-12.112,39.945
	c-8.07,7.802-20.773,11.591-38.84,11.591h-23.4c-18.406,0-31.164-3.56-39.003-10.883c-8.039-7.5-11.949-19.842-11.949-37.728v-4.096
	c0-1.096-0.121-1.742-0.212-2.073c-0.331-0.09-0.978-0.212-2.072-0.212h-49.728c-1.095,0-1.741,0.122-2.072,0.212
	c-0.091,0.33-0.212,0.977-0.212,2.073v11.115c0,27.576,7.201,48.348,22.014,63.505c14.749,15.099,35.086,22.438,62.175,22.438h4.094
	c5.522,0,10,4.477,10,10v45.046c0,1.096,0.122,1.743,0.213,2.073c0.33,0.091,0.977,0.212,2.073,0.212h35.101
	c1.097,0,1.743-0.122,2.073-0.212c0.091-0.331,0.213-0.977,0.213-2.073v-45.046c0-5.523,4.478-10,10-10h1.169
	c26.763,0,47.139-7.283,62.294-22.267c15.127-14.948,22.479-35.776,22.479-63.676v-22.23c0-34.586-9.006-58.604-26.77-71.39
	c-9.258-6.396-18.681-11.159-28.009-14.155c-9.594-3.071-24.405-5.481-44.013-7.163c-21.023-1.802-35.587-3.469-44.521-5.098
	c-0.087-0.016-0.173-0.033-0.259-0.05c-8.995-1.886-17.152-5.843-24.246-11.763c-8.089-6.735-12.368-16.371-12.368-27.86v-11.701
	c0-20.366,3.656-34.178,11.178-42.223c7.7-8.235,20.71-12.238,39.772-12.238h18.721c18.852,0,31.743,3.596,39.411,10.993
	c7.77,7.518,11.541,19.819,11.541,37.618v4.095c0,1.096,0.122,1.743,0.213,2.073c0.33,0.091,0.977,0.212,2.073,0.212h49.726
	c1.097,0,1.743-0.122,2.073-0.213c0.091-0.33,0.213-0.977,0.213-2.073v-11.116c0-26.879-7.168-48.206-21.305-63.387
	C332.524,85.879,313.484,78.5,288.469,78.5H287.3c-5.522,0-10-4.477-10-10V22.286c0-1.096-0.122-1.743-0.213-2.073
	c-0.33-0.091-0.977-0.212-2.073-0.212h-35.101c-1.097,0-1.743,0.122-2.073,0.212c-0.091,0.331-0.213,0.977-0.213,2.073v46.217
	c0,5.523-4.478,10-10,10h-10.094c-5.522,0-10-4.477-10-10s4.478-10,10-10h0.094V22.286C217.626,8.54,226.165,0,239.912,0h35.101
	c13.747,0,22.286,8.54,22.286,22.286v36.5c26.375,1.728,47.878,11.339,64.006,28.637c17.699,19.007,26.672,44.919,26.672,77.021
	v11.116c0,13.746-8.54,22.286-22.286,22.286h-49.726c-13.746,0-22.286-8.54-22.286-22.286v-4.095c0-15.639-3.406-21.27-5.438-23.234
	c-1.668-1.609-7.517-5.376-25.515-5.376h-18.721c-17.097,0-23.104,3.695-25.164,5.897c-1.739,1.86-5.786,8.37-5.786,28.563v11.701
	c0,7.341,2.953,10.648,5.174,12.498c4.593,3.833,9.636,6.292,15.421,7.524c8.213,1.487,22.514,3.109,42.508,4.823
	c21.394,1.834,37.229,4.465,48.411,8.044c11.236,3.609,22.455,9.262,33.355,16.803c0.047,0.032,0.094,0.065,0.14,0.098
	c23.342,16.745,35.177,46.247,35.177,87.688v22.23c0,33.056-9.562,59.266-28.421,77.901c-17.047,16.854-39.732,26.184-67.521,27.792
	v35.297C297.299,503.46,288.76,512,275.013,512z"/>
<circle cx="174.99" cy="77.78" r="10"/>
<g>
</g>
<g>
</g>
<g>
</g>
<g>
</g>
<g>
</g>
<g>
</g>
<g>
</g>
<g>
</g>
<g>
</g>
<g>
</g>
<g>
</g>
<g>
</g>
<g>
</g>
<g>
</g>
<g>
</g>
</svg>
